/* XPM */
static char * collapse_xpm[] = {
"15 20 3 1",
" 	c None",
".	c #900000",
"+	c #C0C000",
"...............",
"...............",
"...............",
"...............",
"...............",
"...............",
"...............",
"....+++........",
"......++.......",
".......+++.....",
".........+++...",
".......+++.....",
"......++.......",
"....+++........",
"...............",
"...............",
"...............",
"...............",
"...............",
"..............."};
