/* XPM */
static char * linux_xpm[] = {
"45 20 3 1",
" 	c None",
".	c #900000",
"+	c #C0C000",
".............................................",
".............................................",
".............................................",
".............................................",
".............................................",
".............................................",
".....++++++..............++++.+++++...++.....",
".......++.................++...+++++.++......",
".......++....+++++..++++..++.+.+++++.++......",
".......++...++...+.++..++..+.+.+.+++.++......",
".......++...++.....++++++..++.++.++.+.+......",
".......++...++.....++......++.++.++.+.+......",
".......++...++...+.++...+..++.++.++...+......",
".....++++++..++++...++++...++.++++++.+++.....",
".............................................",
".............................................",
".............................................",
".............................................",
".............................................",
"............................................."};
