/* XPM */
static char * rolldownI_xpm[] = {
"16 40 4 1",
" 	c None",
".	c #600000",
"+	c #C0C000",
"@	c #900000",
"................",
"................",
"................",
"................",
"................",
"....++++++......",
".....++..++.....",
".....++..++.....",
".....++..++.....",
".....+++++......",
".....++.++......",
".....++..++.....",
"....++++..++....",
"................",
"................",
"................",
"................",
"................",
"................",
"................",
"@@@@@@@@@@@@@@@@",
"@@@@@@@@@@@@@@@@",
"@@@@@@@@@@@@@@@@",
"@@@@@@@@@@@@@@@@",
"@@@@@@@@@@@@@@@@",
"@@@@++++++@@@@@@",
"@@@@@++@@++@@@@@",
"@@@@@++@@++@@@@@",
"@@@@@++@@++@@@@@",
"@@@@@+++++@@@@@@",
"@@@@@++@++@@@@@@",
"@@@@@++@@++@@@@@",
"@@@@++++@@++@@@@",
"@@@@@@@@@@@@@@@@",
"@@@@@@@@@@@@@@@@",
"@@@@@@@@@@@@@@@@",
"@@@@@@@@@@@@@@@@",
"@@@@@@@@@@@@@@@@",
"@@@@@@@@@@@@@@@@",
"@@@@@@@@@@@@@@@@"};
