/* XPM */
static char * errmail_xpm[] = {
"16 16 3 1",
" 	c None",
".	c #900000",
"+	c #600000",
"................",
"................",
"................",
"......+++.......",
"....++...++.....",
"...++..++++.....",
"...++.+..++.....",
"...++.+..++.....",
"...++..++++.....",
"...++...........",
"....++....+.....",
"......++++......",
"................",
"................",
"................",
"................"};
